<svg aria-hidden="true" style="position: absolute; width: 0; height: 0; overflow: hidden;" version="1.1" xmlns="http://www.w3.org/2000/svg" xmlns:xlink="http://www.w3.org/1999/xlink">
<defs>
<symbol id="Emoji" viewBox="0 0 32 32">
<path fill="#ef9645" style="fill: var(--color1, #ef9645)" d="M4.326 8.103c0.837-0.585 2.098-0.473 2.849 0.148l-0.861-1.252c-0.693-0.989-0.445-2.058 0.545-2.753 0.99-0.691 3.794 1.168 3.794 1.168-0.7-0.998-0.569-2.264 0.43-2.964 0.998-0.698 2.376-0.457 3.076 0.544l9.273 13.1-1.182 11.458-9.863-3.597-8.603-12.755c-0.706-1.005-0.462-2.39 0.544-3.095z"></path>
<path fill="#ffdc5d" style="fill: var(--color2, #ffdc5d)" d="M2.398 15.39c0 0-1.007-1.468 0.462-2.475 1.467-1.006 2.474 0.461 2.474 0.461l4.673 6.815c0.161-0.269 0.337-0.534 0.534-0.796l-6.486-9.457c0 0-1.007-1.467 0.462-2.474s2.474 0.461 2.474 0.461l6.1 8.897c0.227-0.185 0.459-0.371 0.699-0.554l-7.072-10.315c0 0-1.006-1.468 0.462-2.474s2.474 0.461 2.474 0.461l7.072 10.313c0.26-0.159 0.517-0.297 0.775-0.443l-6.61-9.64c0 0-1.006-1.467 0.461-2.474s2.474 0.461 2.474 0.461l8.052 11.743c-4.403 3.020-4.823 8.703-2.307 12.372 0.503 0.734 1.237 0.231 1.237 0.231-3.020-4.404-2.098-9.353 2.307-12.373l-1.298-6.498c0 0-0.485-1.712 1.226-2.198s2.198 1.227 2.198 1.227l1.5 4.453c0.595 1.766 1.227 3.525 2.065 5.189 2.364 4.699 0.952 10.539-3.506 13.597-4.863 3.335-11.512 2.095-14.848-2.768l-8.053-11.744z"></path>
<path fill="#5dadec" style="fill: var(--color3, #5dadec)" d="M10.679 28.478c-3.56 0-7.157-3.597-7.157-7.157 0-0.492-0.36-0.89-0.853-0.89s-0.927 0.398-0.927 0.89c0 5.34 3.597 8.937 8.937 8.937 0.492 0 0.89-0.435 0.89-0.927s-0.398-0.853-0.89-0.853z"></path>
<path fill="#5dadec" style="fill: var(--color3, #5dadec)" d="M6.229 30.22c-2.67 0-4.45-1.78-4.45-4.45 0-0.492-0.398-0.89-0.89-0.89s-0.89 0.398-0.89 0.89c0 3.56 2.67 6.23 6.229 6.23 0.492 0 0.89-0.398 0.89-0.89s-0.398-0.89-0.89-0.89zM21.358 1.742c-0.491 0-0.89 0.399-0.89 0.89s0.399 0.89 0.89 0.89c3.56 0 7.119 3.194 7.119 7.119 0 0.491 0.399 0.89 0.89 0.89s0.89-0.399 0.89-0.89c0-4.907-3.56-8.899-8.899-8.899z"></path>
<path fill="#5dadec" style="fill: var(--color3, #5dadec)" d="M25.808 0c-0.491 0-0.89 0.361-0.89 0.853s0.399 0.927 0.89 0.927c2.67 0 4.412 1.98 4.412 4.412 0 0.491 0.435 0.89 0.927 0.89s0.853-0.399 0.853-0.89c0-3.415-2.632-6.192-6.192-6.192z"></path>
</symbol>
</defs>
</svg>
